<?xml version="1.0" encoding="utf-8"?>
<!-- Generator: Adobe Illustrator 25.2.3, SVG Export Plug-In . SVG Version: 6.00 Build 0)  -->
<svg version="1.1" id="Layer_1" xmlns="http://www.w3.org/2000/svg" xmlns:xlink="http://www.w3.org/1999/xlink" x="0px" y="0px"
	 viewBox="0 0 960 640" style="enable-background:new 0 0 960 640;" xml:space="preserve">
<style type="text/css">
	.st0{fill:#FFFFFF;}
	.st1{fill:#282973;}
</style>
<rect x="186.18" y="-150.32" class="st0" width="562.81" height="966.84"/>
<g>
	<g>
		<g>
			<path class="st1" d="M416.21,200.86h15.76v131.33h8.51v8.05h-24.27V200.86z"/>
			<path class="st1" d="M447.49,208.91h-8.51v-8.05h32.77v8.05h-8.51v131.33h-15.76V208.91z"/>
			<path class="st1" d="M518.68,255.65v-34.92c0-10.12-7.73-18.7-17.8-19.77c-0.68-0.04-1.37-0.09-2.05-0.09h-19.85v8.03h19.85
				c2.22,0,4.1,1.88,4.1,4.1v49.44c0,2.22-1.88,4.1-4.1,4.1h-4.1v-50.42h-15.75v124.11h19.85c0.68,0,1.37,0,2.05-0.09
				c10.08-1.07,17.8-9.65,17.8-19.77V289c0-5.93-2.65-11.48-7.17-15.24l-1.71-1.41l1.71-1.45
				C516.04,267.14,518.68,261.59,518.68,255.65z M502.93,328.11c0,2.22-1.88,4.1-4.1,4.1h-4.14v-57.64h4.14c2.22,0,4.1,1.88,4.1,4.1
				V328.11z"/>
		</g>
	</g>
	<g>
		<g>
			<path class="st1" d="M280.26,412.68v-38h4.25v34.08h15.65v3.93H280.26z"/>
			<path class="st1" d="M308.17,412.68v-38h21.48v3.93h-17.23v12.05h16.19v3.93h-16.19v14.18h17.61v3.93H308.17z"/>
			<path class="st1" d="M362.3,412.68V378.6h-10.36v-3.93h24.97v3.93h-10.36v34.08H362.3z"/>
			<path class="st1" d="M384.7,412.68v-38h12.98c3.16,0,5.83,1.09,8.07,3.27c2.24,2.13,3.33,4.85,3.33,8.07
				c0,5.02-2.89,9.1-7.25,10.8l9.16,15.87h-4.85l-8.56-15.05h-0.05h-8.56v15.05H384.7z M388.95,393.7h8.29
				c2.18,0,3.98-0.71,5.4-2.18c1.47-1.47,2.18-3.27,2.18-5.51c0-4.2-3.11-7.41-7.31-7.41h-8.56V393.7z"/>
			<path class="st1" d="M417.41,412.68l16.08-38h3.27l16.08,38h-4.58l-3.93-9.38h-18.43l-3.93,9.38H417.41z M427.55,399.37h15.16
				l-7.58-18.1L427.55,399.37z"/>
			<path class="st1" d="M460.88,412.68v-38h4.25v38H460.88z"/>
			<path class="st1" d="M476.97,412.68v-38h3.71l22.95,30.42v-30.42h4.25v38h-3.44l-23.23-30.75v30.75H476.97z"/>
			<path class="st1" d="M534.05,412.68v-38h11.61c2.89,0,5.29,0.93,7.25,2.78c1.96,1.8,2.94,4.14,2.94,6.92
				c0,3.65-1.8,6.38-4.85,7.63c4.96,1.04,7.63,4.58,7.63,9.43c0,3.22-1.09,5.94-3.33,8.07c-2.18,2.13-4.91,3.16-8.23,3.16H534.05z
				 M538.3,390.54h7.09c3.54,0,6.22-2.56,6.22-6c0-3.44-2.62-5.94-6.16-5.94h-7.14V390.54z M538.3,408.75h8.51
				c4.36,0,7.58-3.11,7.58-7.31c0-2.02-0.71-3.71-2.18-5.07c-1.42-1.36-3.22-2.02-5.45-2.02h-8.45V408.75z"/>
			<path class="st1" d="M568.19,412.68v-38h4.25v34.08h15.65v3.93H568.19z"/>
			<path class="st1" d="M596.1,412.68v-38h21.48v3.93h-17.23v12.05h16.19v3.93h-16.19v14.18h17.61v3.93H596.1z"/>
			<path class="st1" d="M626.45,374.67h4.25v24.26c0,6.81,3.82,10.47,9.98,10.47c6.16,0,9.98-3.65,9.98-10.47v-24.26h4.25v24.7
				c0,4.47-1.31,7.91-3.93,10.36c-2.62,2.4-6.05,3.6-10.31,3.6c-4.25,0-7.69-1.2-10.31-3.6c-2.62-2.45-3.93-5.89-3.93-10.36V374.67z
				"/>
		</g>
	</g>
</g>
</svg>
